<?xml version='1.0' standalone='no'?>
<svg width="600" height="600" viewBox="0 0 600 600" xmlns="http://www.w3.org/2000/svg"><g transform="translate(300,300)"><path stroke="none" stroke-width="0" fill="#00d084" d="M130.1904508346189,-169.69178274676068C173.78054116481346,-147.5217283222791,217.66054157299035,-116.25070088769483,231.833580227335,-74.81226814009459C246.00661888167974,-33.373835392494335,230.4726957821922,18.232002668121883,215.19426177075184,71.36293347270028C199.91582775931138,124.49386427727866,184.89288283591807,179.1498878258192,149.0697540554673,217.34358103769623C113.24662527501653,255.5372742495732,56.623312637508285,277.2686371247866,10.580134541264547,262.70633122603755C-35.46304355497919,248.14402532728852,-70.9260871099584,197.288050654577,-116.41829047274325,162.23603021884531C-161.91049383552811,127.18400978311365,-217.43185700611858,107.9359435843618,-239.48619949364294,70.60338665603224C-261.5405419811672,33.27082972770271,-250.1278637856254,-22.146217930204525,-230.00839048013233,-71.85009775165808C-209.88891717463923,-121.55397757311164,-181.0626487591949,-165.5446895581115,-141.276784494181,-188.95081196009286C-101.49092022916706,-212.3569343620742,-50.74546011458353,-215.17846718103712,-3.722639931185673,-210.05469288332915C43.300180252212186,-204.93091858562113,86.60036050442437,-191.86183717124223,130.1904508346189,-169.69178274676068"/></g></svg>